<svg aria-hidden="true" style="position: absolute; width: 0; height: 0; overflow: hidden;" version="1.1" xmlns="http://www.w3.org/2000/svg" xmlns:xlink="http://www.w3.org/1999/xlink">
<defs>
<symbol id="icon-menu" viewBox="0 0 20 20">
<path d="M16.4 9h-12.8c-0.552 0-0.6 0.447-0.6 1s0.048 1 0.6 1h12.8c0.552 0 0.6-0.447 0.6-1s-0.048-1-0.6-1zM16.4 13h-12.8c-0.552 0-0.6 0.447-0.6 1s0.048 1 0.6 1h12.8c0.552 0 0.6-0.447 0.6-1s-0.048-1-0.6-1zM3.6 7h12.8c0.552 0 0.6-0.447 0.6-1s-0.048-1-0.6-1h-12.8c-0.552 0-0.6 0.447-0.6 1s0.048 1 0.6 1z"></path>
</symbol>
<symbol id="icon-heart" viewBox="0 0 32 32">
<path d="M23.6 2c-3.363 0-6.258 2.736-7.599 5.594-1.342-2.858-4.237-5.594-7.601-5.594-4.637 0-8.4 3.764-8.4 8.401 0 9.433 9.516 11.906 16.001 21.232 6.13-9.268 15.999-12.1 15.999-21.232 0-4.637-3.763-8.401-8.4-8.401z"></path>
</symbol>
</defs>
</svg>
